<svg xmlns="http://www.w3.org/2000/svg" viewBox="0 0 3000 753" preserveAspectRatio="xMidYMid" width="100%" height="100%" style="shape-rendering: auto; display: block;" xmlns:xlink="http://www.w3.org/1999/xlink"><g><defs>
<linearGradient y2="1" y1="0" x2="0" x1="0" id="lg-bk-jg6mq6wfbyj">
  <stop offset="0" stop-color="var(--background)"></stop>
  <stop offset="1" stop-color="var(--muted)"></stop>
</linearGradient>
<linearGradient y2="1" y1="0" x2="0" x1="0" id="lg-oersv4ab58c">
  <stop offset="0" stop-color="var(--accent)" stop-opacity="0.4"></stop>
  <stop offset="0.42" stop-color="var(--primary)"></stop>
  <stop offset="1" stop-color="var(--secondary)"></stop>
</linearGradient>
</defs>
<rect fill="url(#lg-bk-jg6mq6wfbyj)" height="753" width="3000" y="0" x="0"></rect><g>
<path opacity="0.4" fill="url(#lg-oersv4ab58c)" d="M0 240.96
C1500 240.96 1500 665.9532 3000 665.9532
C4500 665.9532 4500 240.96 6000 240.96
C7500 240.96 7500 665.9532 9000 665.9532
C10500 665.9532 10500 240.96 12000 240.96
L12000 753 L0 753 Z">
  <animateTransform values="-6000 0;0 0" begin="0s" keyTimes="0;1" repeatCount="indefinite" dur="50s" type="translate" attributeName="transform"></animateTransform>
</path>
<animateTransform values="0 0;0 10; 0" begin="0s" keyTimes="0;0.5;1" keySplines="0.3 0 0.7 1;0.3 0 0.7 1" calcMode="spline" repeatCount="indefinite" dur="50s" type="translate" attributeName="transform"></animateTransform>
</g><g>
<path opacity="0.4" fill="url(#lg-oersv4ab58c)" d="M0 240.96
C1500 240.96 1500 665.9532 3000 665.9532
C4500 665.9532 4500 240.96 6000 240.96
C7500 240.96 7500 665.9532 9000 665.9532
C10500 665.9532 10500 240.96 12000 240.96
L12000 753 L0 753 Z">
  <animateTransform values="-6000 0;0 0" begin="-9.375s" keyTimes="0;1" repeatCount="indefinite" dur="50s" type="translate" attributeName="transform"></animateTransform>
</path>
<animateTransform values="0 0;0 10; 0" begin="-12.5s" keyTimes="0;0.5;1" keySplines="0.3 0 0.7 1;0.3 0 0.7 1" calcMode="spline" repeatCount="indefinite" dur="50s" type="translate" attributeName="transform"></animateTransform>
</g><g>
<path opacity="0.4" fill="url(#lg-oersv4ab58c)" d="M0 240.96
C1500 240.96 1500 665.9532 3000 665.9532
C4500 665.9532 4500 240.96 6000 240.96
C7500 240.96 7500 665.9532 9000 665.9532
C10500 665.9532 10500 240.96 12000 240.96
L12000 753 L0 753 Z">
  <animateTransform values="-6000 0;0 0" begin="-18.75s" keyTimes="0;1" repeatCount="indefinite" dur="50s" type="translate" attributeName="transform"></animateTransform>
</path>
<animateTransform values="0 0;0 10; 0" begin="-25s" keyTimes="0;0.5;1" keySplines="0.3 0 0.7 1;0.3 0 0.7 1" calcMode="spline" repeatCount="indefinite" dur="50s" type="translate" attributeName="transform"></animateTransform>
</g><g>
<path opacity="0.4" fill="url(#lg-oersv4ab58c)" d="M0 240.96
C1500 240.96 1500 665.9532 3000 665.9532
C4500 665.9532 4500 240.96 6000 240.96
C7500 240.96 7500 665.9532 9000 665.9532
C10500 665.9532 10500 240.96 12000 240.96
L12000 753 L0 753 Z">
  <animateTransform values="-6000 0;0 0" begin="-28.125s" keyTimes="0;1" repeatCount="indefinite" dur="50s" type="translate" attributeName="transform"></animateTransform>
</path>
<animateTransform values="0 0;0 10; 0" begin="-37.5s" keyTimes="0;0.5;1" keySplines="0.3 0 0.7 1;0.3 0 0.7 1" calcMode="spline" repeatCount="indefinite" dur="50s" type="translate" attributeName="transform"></animateTransform>
</g><g></g></g><!-- [ldio] generated by https://loading.io --></svg>